<?xml version="1.0" standalone="no"?>
<!DOCTYPE svg PUBLIC "-//W3C//DTD SVG 20010904//EN"
 "http://www.w3.org/TR/2001/REC-SVG-20010904/DTD/svg10.dtd">
<svg version="1.0" xmlns="http://www.w3.org/2000/svg"
 width="1280.000000pt" height="861.000000pt" viewBox="0 0 1280.000000 861.000000"
 preserveAspectRatio="xMidYMid meet">
<metadata>
Created by potrace 1.15, written by Peter Selinger 2001-2017
</metadata>
<g transform="translate(0.000000,861.000000) scale(0.100000,-0.100000)"
fill="#9e9e9e" stroke="none">
<path d="M7846 8581 c-37 -41 14 -97 60 -66 28 18 31 46 8 69 -21 21 -47 20
-68 -3z"/>
<path d="M1413 8554 c-7 -19 2 -28 22 -21 19 8 19 23 0 31 -9 3 -18 -1 -22
-10z"/>
<path d="M2031 8552 c-14 -27 8 -55 40 -50 19 2 24 9 24 33 0 25 -4 31 -27 33
-18 2 -30 -3 -37 -16z"/>
<path d="M1178 8539 c-21 -12 -24 -49 -6 -67 18 -18 56 -14 68 7 14 27 13 37
-6 55 -18 18 -32 20 -56 5z"/>
<path d="M2637 8534 c-14 -14 -7 -35 11 -32 9 2 17 10 17 17 0 16 -18 25 -28
15z"/>
<path d="M9486 8524 c-19 -18 -19 -20 -6 -45 13 -23 52 -25 70 -4 10 12 10 21
2 40 -13 29 -43 33 -66 9z"/>
<path d="M8793 8484 c-15 -24 -15 -29 -2 -53 27 -49 102 -33 102 22 0 59 -67
80 -100 31z"/>
<path d="M9630 8489 c-9 -15 -8 -24 1 -35 18 -22 53 -13 57 15 6 40 -39 56
-58 20z"/>
<path d="M12063 8494 c-3 -8 -1 -20 6 -27 14 -14 47 15 37 32 -10 16 -36 13
-43 -5z"/>
<path d="M831 8486 c-21 -25 -4 -58 27 -54 23 2 27 8 27 33 0 23 -5 31 -21 33
-11 2 -26 -4 -33 -12z"/>
<path d="M7454 8475 c-15 -23 -15 -27 0 -50 38 -57 116 -12 88 50 -9 19 -19
25 -42 25 -21 0 -34 -8 -46 -25z"/>
<path d="M5036 8468 c-34 -48 -7 -108 47 -108 38 0 50 7 66 38 23 44 -10 92
-64 92 -24 0 -39 -7 -49 -22z"/>
<path d="M9242 8468 c-16 -16 -15 -53 3 -68 19 -16 45 -10 61 15 26 39 -31 86
-64 53z"/>
<path d="M2795 8460 c-3 -5 -1 -10 4 -10 6 0 11 5 11 10 0 6 -2 10 -4 10 -3 0
-8 -4 -11 -10z"/>
<path d="M7722 8438 c4 -30 43 -33 43 -3 0 13 -8 21 -23 23 -20 3 -23 0 -20
-20z"/>
<path d="M2972 8378 c-22 -22 -14 -66 14 -85 24 -15 29 -15 53 -2 51 28 35 99
-22 99 -18 0 -38 -5 -45 -12z"/>
<path d="M4105 8380 c4 -6 11 -8 16 -5 14 9 11 15 -7 15 -8 0 -12 -5 -9 -10z"/>
<path d="M35 8355 c-32 -31 -32 -59 0 -90 47 -48 115 -19 115 49 0 63 -69 87
-115 41z"/>
<path d="M7761 8316 c-17 -20 -2 -46 25 -46 29 0 41 24 24 45 -16 19 -34 19
-49 1z"/>
<path d="M11757 8323 c-12 -11 -8 -23 8 -23 8 0 15 7 15 15 0 16 -12 20 -23 8z"/>
<path d="M4861 8296 c-16 -19 -11 -46 12 -60 25 -16 52 4 52 40 0 24 -5 30
-26 32 -14 2 -31 -4 -38 -12z"/>
<path d="M8646 8297 c-12 -9 -17 -23 -14 -42 2 -25 8 -31 33 -33 19 -3 33 2
42 14 17 24 17 30 -7 54 -24 24 -30 24 -54 7z"/>
<path d="M6256 8214 c-20 -20 -20 -38 0 -59 20 -20 42 -16 60 10 12 18 11 24
-2 43 -18 26 -37 28 -58 6z"/>
<path d="M11522 8164 c-24 -17 -30 -62 -10 -82 20 -20 65 -14 82 10 19 27 20
39 4 60 -20 25 -51 30 -76 12z"/>
<path d="M997 8104 c-13 -13 -7 -24 14 -24 11 0 19 5 17 12 -5 14 -22 21 -31
12z"/>
<path d="M1062 8088 c-17 -17 -15 -32 7 -52 16 -14 23 -15 41 -6 31 17 24 64
-10 68 -14 2 -31 -3 -38 -10z"/>
<path d="M3474 8065 c-15 -23 -15 -27 0 -50 38 -57 116 -12 88 50 -9 19 -19
25 -42 25 -21 0 -34 -8 -46 -25z"/>
<path d="M10300 8075 c-10 -12 -9 -16 3 -21 21 -8 37 3 30 21 -7 19 -17 19
-33 0z"/>
<path d="M10757 8054 c-14 -14 -7 -35 11 -32 9 2 17 10 17 17 0 16 -18 25 -28
15z"/>
<path d="M9360 8001 c-16 -31 4 -63 37 -59 34 4 52 32 37 56 -16 26 -60 28
-74 3z"/>
<path d="M12480 7996 c-19 -23 -8 -61 18 -64 44 -7 67 32 36 62 -19 20 -38 20
-54 2z"/>
<path d="M1406 7874 c-4 -10 -1 -24 7 -31 19 -19 49 -5 45 21 -4 27 -43 34
-52 10z"/>
<path d="M8300 7876 c-27 -33 18 -72 48 -42 13 13 14 20 6 34 -15 23 -38 26
-54 8z"/>
<path d="M12542 7858 c-7 -7 -12 -24 -12 -38 0 -33 17 -50 50 -50 33 0 50 17
50 50 0 33 -17 50 -50 50 -14 0 -31 -5 -38 -12z"/>
<path d="M11060 7830 c-32 -32 -25 -66 19 -90 20 -10 27 -9 50 7 33 25 38 56
12 82 -26 26 -55 27 -81 1z"/>
<path d="M983 7829 c-31 -11 -32 -64 -2 -79 18 -10 63 -2 87 16 7 4 -31 55
-47 63 -9 5 -26 5 -38 0z"/>
<path d="M4170 7820 c0 -5 5 -10 10 -10 6 0 10 5 10 10 0 6 -4 10 -10 10 -5 0
-10 -4 -10 -10z"/>
<path d="M8234 7779 c-3 -6 0 -18 9 -26 18 -18 37 -9 37 18 0 21 -34 27 -46 8z"/>
<path d="M9020 7780 c0 -5 4 -10 9 -10 6 0 13 5 16 10 3 6 -1 10 -9 10 -9 0
-16 -4 -16 -10z"/>
<path d="M3624 7724 c-28 -27 -27 -64 1 -93 22 -23 75 -18 97 8 23 30 23 52
-3 85 -26 33 -62 34 -95 0z"/>
<path d="M7570 7733 c-56 -20 -68 -87 -23 -123 20 -15 35 -20 53 -15 14 4 41
7 61 8 20 2 44 9 53 16 36 30 6 91 -45 91 -14 0 -29 4 -34 9 -14 13 -48 20
-65 14z"/>
<path d="M450 7635 c0 -31 26 -43 47 -22 21 21 9 47 -22 47 -20 0 -25 -5 -25
-25z"/>
<path d="M5977 7624 c-14 -15 -6 -34 14 -34 14 0 19 5 17 17 -3 18 -20 27 -31
17z"/>
<path d="M125 7610 c3 -5 8 -10 11 -10 2 0 4 5 4 10 0 6 -5 10 -11 10 -5 0 -7
-4 -4 -10z"/>
<path d="M3810 7586 c-13 -17 -6 -36 15 -36 19 0 26 27 11 39 -10 8 -17 7 -26
-3z"/>
<path d="M1480 7449 c-9 -15 -8 -24 1 -35 18 -22 53 -13 57 15 6 40 -39 56
-58 20z"/>
<path d="M4567 7464 c-8 -8 1 -24 14 -24 5 0 9 7 9 15 0 15 -12 20 -23 9z"/>
<path d="M7114 7409 c-3 -6 -2 -15 4 -21 13 -13 32 -2 32 18 0 16 -26 19 -36
3z"/>
<path d="M4091 7396 c-15 -18 -4 -46 18 -46 27 0 42 20 30 42 -12 21 -32 23
-48 4z"/>
<path d="M5138 7329 c-21 -12 -24 -59 -6 -77 27 -27 88 -3 88 34 0 17 -36 54
-52 54 -7 0 -21 -5 -30 -11z"/>
<path d="M2306 7314 c-24 -24 -20 -61 9 -80 23 -15 27 -15 50 0 30 20 33 56 7
79 -23 21 -46 22 -66 1z"/>
<path d="M4786 7264 c-20 -20 -21 -68 -1 -84 22 -18 66 -15 82 6 41 56 -32
127 -81 78z"/>
<path d="M12576 7239 c-46 -36 -26 -110 34 -124 39 -9 80 27 80 70 0 36 -36
75 -70 75 -10 0 -29 -9 -44 -21z"/>
<path d="M7361 7226 c-9 -10 -8 -16 4 -26 19 -16 41 1 32 24 -8 20 -21 20 -36
2z"/>
<path d="M12117 7192 c-29 -32 -19 -78 20 -93 47 -18 94 31 72 74 -22 41 -64
50 -92 19z"/>
<path d="M5703 7169 c-15 -15 -5 -39 17 -39 22 0 32 24 17 39 -6 6 -14 11 -17
11 -3 0 -11 -5 -17 -11z"/>
<path d="M9727 7163 c-12 -11 -8 -23 8 -23 8 0 15 7 15 15 0 16 -12 20 -23 8z"/>
<path d="M1667 7114 c-12 -12 -8 -41 7 -53 22 -18 58 4 54 32 -3 22 -45 36
-61 21z"/>
<path d="M5877 7076 c-8 -20 20 -43 35 -28 14 14 3 42 -16 42 -7 0 -16 -6 -19
-14z"/>
<path d="M1334 7025 c-15 -23 -15 -27 0 -50 20 -30 56 -33 79 -7 21 23 22 46
1 66 -24 24 -61 20 -80 -9z"/>
<path d="M2195 7005 c-46 -45 -19 -115 45 -115 65 0 94 79 44 119 -35 27 -59
26 -89 -4z"/>
<path d="M10111 6991 c-16 -29 -14 -46 9 -66 41 -37 102 17 73 64 -16 25 -69
26 -82 2z"/>
<path d="M1940 6970 c-39 -39 -14 -100 42 -100 53 0 79 74 36 104 -30 21 -54
20 -78 -4z"/>
<path d="M2103 6949 c-16 -16 -5 -39 17 -39 23 0 32 13 24 34 -7 19 -25 21
-41 5z"/>
<path d="M3391 6946 c-21 -25 -4 -58 27 -54 23 2 27 8 27 33 0 23 -5 31 -21
33 -11 2 -26 -4 -33 -12z"/>
<path d="M10882 6938 c-27 -27 -6 -68 35 -68 29 0 48 33 33 60 -12 22 -49 27
-68 8z"/>
<path d="M1490 6920 c-26 -26 -26 -81 -2 -103 25 -23 78 -21 102 3 27 27 25
66 -5 95 -29 30 -68 32 -95 5z"/>
<path d="M11678 6919 c-25 -14 -24 -65 1 -79 27 -14 37 -13 55 6 22 21 20 61
-3 74 -24 12 -31 12 -53 -1z"/>
<path d="M7286 6899 c-48 -38 -23 -99 42 -99 52 0 73 74 30 104 -29 21 -40 20
-72 -5z"/>
<path d="M12475 6875 c-49 -48 -19 -119 50 -119 43 0 75 30 75 71 0 32 -42 73
-75 73 -14 0 -37 -11 -50 -25z"/>
<path d="M4444 6866 c-10 -26 4 -48 28 -44 17 2 23 10 23 28 0 18 -6 26 -23
28 -13 2 -25 -3 -28 -12z"/>
<path d="M3467 6842 c-22 -24 -21 -45 2 -66 26 -24 62 -17 80 16 14 24 14 28
-3 47 -24 26 -58 27 -79 3z"/>
<path d="M2137 6834 c-15 -15 -7 -45 11 -42 9 2 17 12 17 22 0 20 -16 31 -28
20z"/>
<path d="M3181 6816 c-19 -22 -4 -56 23 -56 32 0 53 26 39 48 -14 23 -47 27
-62 8z"/>
<path d="M1369 6800 c-1 -8 -1 -18 0 -22 0 -5 -4 -8 -10 -8 -8 0 -7 -5 1 -15
7 -9 10 -18 7 -22 -4 -3 -1 -13 6 -21 10 -13 8 -14 -11 -7 -21 6 -23 5 -13
-13 9 -17 7 -20 -20 -26 -18 -3 -28 -10 -24 -17 4 -5 9 -8 12 -5 3 3 12 -1 20
-9 8 -8 23 -15 35 -15 11 0 18 -5 15 -12 -4 -15 -79 -17 -114 -5 -17 6 -23 5
-23 -7 0 -8 -8 -20 -17 -26 -15 -10 -14 -11 10 -7 15 2 27 1 27 -3 0 -3 18 -6
41 -6 45 1 61 -9 30 -19 -13 -4 -17 -12 -14 -25 3 -11 10 -20 15 -20 5 0 6 -5
3 -11 -5 -6 -12 -4 -21 8 -12 15 -15 16 -23 3 -7 -9 -6 -17 1 -21 6 -4 8 -11
5 -16 -4 -6 12 -18 34 -28 33 -15 37 -20 24 -28 -9 -5 -23 -6 -31 -3 -8 3 -14
1 -14 -3 0 -5 5 -11 12 -13 6 -2 8 -10 4 -16 -5 -8 -22 -10 -49 -6 -33 4 -38
3 -24 -6 27 -17 20 -38 -18 -51 -28 -11 -32 -15 -22 -27 7 -8 25 -21 42 -28
25 -10 27 -14 13 -19 -10 -4 -18 -13 -18 -21 0 -9 -11 -14 -28 -14 -16 0 -37
-7 -48 -15 -10 -8 -32 -15 -47 -15 -15 0 -30 -6 -33 -13 -4 -10 -19 -13 -53
-9 -47 4 -91 -9 -91 -28 0 -6 14 -10 32 -10 25 0 29 -3 20 -12 -20 -20 -14
-28 18 -24 18 2 30 -1 30 -8 0 -7 16 -13 35 -14 20 -2 48 -8 63 -14 15 -6 33
-10 40 -9 16 3 15 -7 -2 -25 -9 -8 -35 -14 -66 -14 -37 0 -57 -5 -72 -20 -20
-19 -21 -20 -2 -26 49 -19 31 -48 -34 -57 -44 -5 -82 -30 -82 -52 0 -8 17 -12
49 -11 27 1 47 -2 45 -6 -5 -7 2 -9 46 -12 21 -1 40 -15 40 -29 0 -8 -3 -8
-11 0 -7 7 -21 8 -41 3 -16 -5 -35 -7 -42 -4 -16 6 -40 -21 -31 -35 3 -6 19
-8 34 -5 33 7 48 -8 26 -26 -8 -7 -12 -16 -9 -21 3 -5 -10 -10 -28 -11 -117
-6 -113 -5 -97 -24 11 -14 10 -19 -11 -36 -20 -16 -21 -21 -9 -29 7 -5 26 -8
42 -6 16 2 27 -1 27 -9 0 -13 35 -26 45 -16 3 3 14 6 25 7 13 1 19 -4 17 -16
-5 -28 -14 -33 -62 -30 -34 2 -48 -2 -65 -19 l-22 -22 33 7 c36 8 34 0 -3 -19
-40 -21 -33 -36 17 -36 38 0 45 -3 37 -13 -8 -10 -6 -16 9 -25 23 -15 25 -38
3 -46 -22 -8 -26 -8 -19 4 3 6 -2 13 -12 16 -10 3 -26 10 -35 15 -10 5 -23 7
-30 5 -7 -3 -25 -7 -40 -10 -32 -7 -38 -36 -8 -36 11 0 20 -4 20 -9 0 -5 -9
-13 -20 -16 -23 -7 -27 -35 -5 -35 9 0 15 -7 13 -16 -3 -19 19 -27 72 -25 l35
1 -22 -18 -23 -17 26 -2 c15 0 30 -7 35 -14 6 -11 11 -11 21 -1 6 6 28 13 48
13 30 2 31 3 8 6 -35 5 -36 21 -2 33 17 7 32 6 46 -1 18 -10 20 -9 15 5 -8 21
19 34 36 17 6 -6 21 -11 33 -11 34 0 36 -14 8 -41 -23 -21 -23 -24 -7 -30 10
-4 25 -8 33 -8 12 -1 12 1 1 8 -9 6 -10 11 -2 15 6 4 9 12 6 17 -4 5 5 9 19 9
16 0 26 -6 26 -14 0 -9 12 -16 28 -18 18 -2 28 -10 30 -23 2 -18 -2 -20 -49
-16 l-52 3 7 -27 c6 -24 5 -26 -11 -19 -42 18 -130 16 -178 -5 -26 -12 -62
-21 -80 -21 -52 0 -94 -19 -92 -41 1 -10 6 -19 13 -19 6 0 17 -7 24 -15 7 -9
20 -13 29 -10 10 3 27 -4 39 -15 22 -21 31 -47 12 -35 -18 11 -69 14 -75 4 -4
-5 -21 -9 -40 -9 -41 0 -67 -9 -59 -21 3 -5 0 -9 -5 -9 -6 0 -11 3 -11 8 0 4
-11 12 -25 19 -20 9 -31 8 -56 -4 -23 -12 -33 -12 -44 -3 -12 10 -15 9 -15 -4
0 -9 -11 -21 -24 -26 -43 -16 -79 -89 -37 -75 11 3 23 -1 32 -12 7 -10 9 -15
4 -10 -4 4 -19 -3 -32 -15 -15 -14 -23 -17 -23 -8 0 7 -3 11 -6 8 -9 -10 16
-48 32 -48 11 0 12 4 4 19 -5 11 -7 22 -3 24 33 19 183 30 183 15 0 -5 -4 -8
-10 -8 -5 0 -10 -6 -10 -14 0 -9 7 -12 20 -9 11 3 26 0 34 -6 8 -7 17 -8 20
-3 3 5 17 8 31 7 16 -2 25 2 25 11 0 8 7 14 15 14 14 0 13 -3 -2 -24 -10 -13
-27 -26 -38 -29 -11 -2 -28 -8 -38 -12 -13 -6 -16 -4 -11 9 8 21 -23 21 -47 0
-17 -15 -19 -14 -25 10 -5 20 -12 26 -34 26 -15 0 -33 -7 -40 -15 -7 -8 -21
-15 -32 -15 -10 0 -33 -8 -51 -17 l-32 -18 27 -3 c16 -2 28 -8 28 -13 0 -5 -8
-9 -17 -7 -11 2 -17 -2 -15 -11 2 -8 -2 -25 -9 -38 -15 -29 -5 -41 21 -25 12
7 20 8 20 2 0 -5 9 -10 20 -10 12 0 24 -10 30 -24 9 -26 30 -44 30 -27 0 6 7
11 15 11 8 0 15 -5 15 -11 0 -6 7 -8 15 -5 8 3 22 9 30 12 10 4 15 0 15 -10 0
-19 5 -20 30 -6 16 8 18 7 14 -4 -5 -13 -1 -13 25 -3 16 6 28 15 25 19 -7 11
-1 10 32 -2 19 -8 30 -7 41 2 11 9 16 9 24 -3 6 -9 12 -10 17 -4 9 12 42 12
62 0 8 -5 24 -8 36 -7 11 2 31 -6 45 -17 l24 -20 -41 2 c-32 2 -40 -1 -36 -11
3 -8 -1 -18 -9 -23 -11 -7 -9 -9 8 -9 22 0 40 -16 29 -27 -3 -3 -33 -7 -68 -8
-81 -4 -175 -20 -192 -34 -7 -6 -27 -8 -44 -5 -25 5 -31 2 -37 -15 -4 -14 -15
-21 -30 -21 -13 0 -27 -4 -30 -10 -3 -5 -17 -10 -30 -10 -12 0 -25 -7 -29 -15
-3 -8 -14 -15 -24 -15 -11 0 -36 -7 -55 -15 -42 -17 -59 -19 -37 -4 18 13 -45
2 -72 -13 -23 -11 -23 -28 -1 -28 15 0 15 -1 0 -18 -21 -23 -21 -32 -1 -32 8
0 22 -7 31 -16 10 -9 25 -13 42 -10 14 3 47 7 72 8 32 1 45 6 42 14 -3 9 4 9
31 0 19 -6 32 -14 30 -18 -3 -5 -9 -6 -14 -3 -4 3 -13 -2 -20 -9 -9 -12 -7
-19 9 -35 13 -13 18 -27 14 -38 -6 -15 -8 -14 -16 4 -5 12 -17 24 -26 27 -9 3
-23 9 -31 12 -12 5 -13 4 -2 -7 21 -23 13 -30 -18 -14 -32 17 -41 5 -15 -21
10 -10 15 -11 15 -4 0 7 7 10 15 7 8 -4 17 -2 21 4 3 6 11 8 17 6 17 -5 15
-31 -5 -49 -10 -10 -18 -14 -18 -8 0 6 -4 10 -10 10 -5 0 -9 -10 -7 -22 1 -17
-7 -25 -38 -37 -82 -32 -127 -62 -138 -92 -6 -16 -18 -29 -27 -29 -9 0 -26 -7
-38 -16 -19 -13 -21 -18 -11 -31 10 -11 24 -13 56 -8 36 5 42 4 37 -9 -3 -9
-12 -16 -19 -16 -25 0 -36 -26 -24 -54 13 -28 24 -33 32 -13 4 10 6 10 6 0 1
-9 20 -13 64 -12 67 1 133 20 129 38 -3 15 13 14 27 -2 9 -11 2 -18 -32 -32
-23 -10 -61 -27 -84 -37 -23 -10 -51 -18 -61 -18 -41 0 -82 -13 -82 -26 0 -9
-11 -14 -28 -14 -33 0 -65 -30 -61 -57 2 -10 -3 -28 -9 -41 -18 -31 -8 -41 38
-39 29 1 42 6 46 20 5 15 8 16 20 6 9 -7 39 -12 70 -11 40 1 56 -3 60 -13 4
-8 10 -12 15 -9 6 3 16 0 24 -6 8 -6 28 -10 45 -8 17 1 34 -3 38 -9 4 -7 17
-16 29 -20 13 -5 -35 -9 -120 -11 -78 -2 -146 -7 -152 -12 -5 -4 -32 -4 -60 0
-68 12 -95 12 -95 1 0 -5 10 -12 22 -14 13 -3 -1 -4 -30 -4 -50 0 -81 -11 -54
-20 6 -3 12 -11 12 -18 0 -8 12 -15 28 -17 l27 -4 -25 -11 c-24 -11 -24 -12
-3 -12 12 -1 28 6 37 14 17 17 30 20 21 5 -4 -6 5 -10 19 -10 17 0 26 5 26 16
0 13 7 15 35 11 19 -3 35 -2 35 2 0 4 23 8 51 10 29 1 71 6 95 10 24 5 44 5
44 1 0 -9 -51 -20 -91 -20 -55 0 -104 -39 -80 -63 6 -6 18 -4 32 6 14 10 33
14 53 10 40 -8 41 -9 26 -28 -7 -9 -10 -19 -6 -22 4 -4 11 -1 15 6 6 10 10 10
16 1 4 -6 4 -14 1 -17 -3 -4 6 -15 21 -25 19 -12 23 -18 12 -18 -9 0 -19 -7
-23 -15 -3 -9 -18 -15 -40 -15 -56 0 -86 -18 -86 -53 0 -24 3 -28 18 -22 38
16 53 17 67 5 10 -9 19 -9 27 -2 16 12 78 9 138 -8 42 -12 44 -13 22 -23 -13
-6 -21 -16 -18 -24 6 -16 -17 -17 -44 -3 -15 8 -18 7 -14 -4 3 -8 -4 -16 -19
-20 -14 -3 -32 -17 -41 -31 -9 -14 -22 -25 -29 -25 -7 0 -18 -5 -25 -12 -7 -7
-27 -13 -45 -14 -111 -6 -147 -10 -147 -17 0 -5 -6 -7 -12 -5 -7 3 -19 -1 -26
-9 -7 -7 -22 -13 -33 -13 -31 0 -102 -51 -89 -64 7 -7 16 -7 28 1 13 8 24 7
43 -3 24 -12 30 -11 50 5 16 12 31 16 44 11 11 -4 26 -5 33 -3 15 6 16 -9 1
-24 -12 -12 -10 -13 38 -38 18 -10 22 -15 12 -18 -91 -27 -99 -31 -94 -45 3
-7 5 -18 5 -24 0 -6 7 -7 18 -3 30 13 82 16 82 5 0 -5 8 -10 18 -10 9 0 23 -4
31 -9 21 -14 -32 -37 -103 -46 -32 -4 -54 -10 -50 -14 20 -14 11 -30 -21 -41
-19 -6 -37 -20 -40 -31 -4 -10 -14 -20 -23 -21 -9 0 -26 -2 -37 -3 -188 -16
-208 -19 -185 -26 14 -4 40 -7 59 -8 33 -1 34 -2 17 -20 -30 -33 -17 -56 30
-57 23 0 49 -4 59 -8 11 -4 26 0 38 11 20 17 20 17 14 -1 -6 -15 -3 -17 13
-13 16 4 18 2 10 -13 -6 -10 -10 -21 -10 -23 0 -10 73 -15 95 -7 15 6 27 6 30
0 11 -18 26 -10 20 9 -7 25 11 37 31 20 13 -10 17 -10 24 1 5 8 12 12 15 8 3
-3 -5 -22 -17 -42 -17 -27 -28 -35 -45 -32 -20 3 -23 -1 -23 -30 0 -32 -1 -33
-31 -22 -31 11 -53 3 -31 -11 8 -5 -8 -10 -42 -14 -31 -3 -69 -12 -86 -20 -16
-9 -44 -19 -62 -22 -51 -11 -67 -45 -22 -45 23 0 25 -2 14 -15 -9 -11 -16 -13
-24 -5 -25 25 -136 0 -136 -32 0 -17 12 -18 153 -18 l152 -1 -33 -28 c-47 -40
-166 -86 -224 -86 l-48 0 0 -977 0 -978 6400 0 6400 0 0 1071 0 1071 -77 -6
c-43 -3 -96 -8 -118 -12 -35 -5 -45 -1 -79 25 -29 23 -49 31 -80 31 -22 0 -49
7 -59 14 -13 10 -27 12 -47 6 -28 -8 -41 -4 -95 34 -24 17 -32 18 -68 7 -23
-7 -53 -15 -67 -18 -14 -3 -35 -17 -47 -30 -27 -28 -30 -28 -68 -3 -16 11 -36
20 -44 20 -8 0 -31 18 -51 40 -42 45 -68 50 -110 19 -24 -19 -33 -20 -61 -10
-27 9 -37 8 -66 -10 -39 -25 -59 -20 -75 18 -7 15 -23 38 -35 50 -13 12 -23
28 -23 36 0 42 -115 43 -173 1 -17 -13 -42 -29 -54 -35 -12 -7 -26 -24 -32
-39 -11 -34 -66 -55 -118 -45 -21 4 -48 1 -65 -6 -28 -11 -32 -10 -59 19 -21
22 -39 32 -60 32 -17 0 -42 9 -56 20 -36 28 -50 25 -98 -19 -52 -48 -86 -56
-213 -48 -74 4 -99 10 -116 25 -30 27 -28 27 -336 60 -77 9 -103 18 -157 59
-24 19 -51 26 -124 34 -102 10 -105 12 -266 117 -72 48 -102 73 -102 87 -1 12
-6 26 -13 33 -15 15 -55 16 -63 1 -4 -6 -19 -1 -38 14 -52 39 -191 110 -357
182 -85 36 -164 72 -175 79 -11 7 -40 18 -65 25 -25 7 -103 40 -175 72 -71 32
-206 88 -300 124 -93 36 -190 74 -215 85 -25 10 -61 24 -79 31 -19 7 -49 26
-67 41 -36 32 -140 78 -176 78 -37 1 -368 117 -390 137 -25 22 -71 113 -89
173 -19 65 -51 110 -122 168 -197 163 -415 228 -742 220 -171 -4 -142 1 -450
-90 -55 -16 -161 -59 -235 -95 -74 -36 -157 -73 -185 -83 -119 -42 -273 -114
-339 -159 -95 -64 -366 -223 -496 -289 -58 -30 -118 -61 -133 -70 -20 -10 -43
-13 -72 -8 -29 3 -56 0 -79 -9 -20 -9 -48 -15 -64 -15 -15 0 -66 -4 -113 -8
-65 -6 -92 -13 -114 -30 -34 -27 -44 -27 -61 -4 -13 16 -15 16 -28 0 -19 -25
-76 -24 -76 1 0 12 -9 21 -26 25 -21 6 -23 10 -14 21 6 8 18 11 26 8 8 -3 14
-1 14 5 0 6 18 8 44 6 27 -3 47 0 52 7 10 17 -24 39 -59 39 -16 0 -26 4 -22
10 3 6 15 10 26 10 12 0 19 5 16 13 -2 7 -23 12 -55 12 -35 0 -57 6 -69 17
-15 16 -15 18 13 28 64 24 84 35 84 48 0 7 5 10 10 7 6 -3 13 2 17 12 3 10 13
26 22 36 14 17 14 20 -4 33 -10 8 -36 14 -57 14 -27 0 -38 4 -38 15 0 8 5 15
11 15 6 0 8 8 4 19 -4 12 0 21 12 26 16 6 16 8 -6 26 -13 10 -35 19 -50 19
-15 0 -36 7 -47 16 -10 8 -14 13 -7 10 6 -4 14 -2 17 3 3 5 21 5 42 1 31 -7
37 -6 41 11 3 11 10 19 17 18 28 -3 36 3 36 26 0 22 -4 25 -35 25 -32 0 -161
23 -207 36 -9 3 -21 18 -27 34 -5 17 -17 30 -25 30 -9 0 -16 4 -16 9 0 16 53
-2 57 -20 6 -23 23 -25 23 -4 0 8 6 15 13 15 20 0 28 -12 18 -24 -6 -7 -4 -16
4 -23 21 -19 36 7 26 43 -6 24 -13 29 -37 29 -39 0 -93 34 -91 57 1 10 6 17
12 17 40 -5 56 2 50 20 -6 21 20 37 31 19 4 -7 10 -5 16 6 5 9 20 16 33 16 22
0 25 4 25 40 0 22 5 40 10 40 6 0 10 7 10 15 0 9 -14 16 -37 20 -21 3 -50 8
-65 10 -16 3 -33 -2 -42 -11 -14 -13 -19 -13 -53 5 -31 16 -35 21 -20 26 9 4
23 5 30 2 8 -3 20 -1 27 3 21 13 -6 40 -41 40 -35 0 -44 13 -27 40 8 12 19 18
30 14 21 -6 24 6 6 24 -7 7 -8 13 -2 13 5 1 24 3 42 5 17 2 32 0 32 -5 0 -4
16 6 35 23 34 30 34 31 15 50 -19 19 -29 22 -127 32 -29 3 -53 11 -53 16 0 6
-8 17 -17 24 -16 12 -16 15 -3 23 8 6 34 16 57 23 24 7 43 17 43 24 0 13 -65
34 -106 34 -18 0 -34 7 -42 20 -10 16 -10 20 2 20 10 0 13 11 12 40 -1 22 1
40 6 40 4 0 5 7 2 15 -4 8 -1 15 5 15 9 0 9 5 1 20 -11 20 3 30 15 10 4 -6 18
-4 37 6 l31 16 -26 16 c-20 12 -26 24 -25 42 3 24 0 25 -55 30 -31 3 -57 8
-57 13 1 33 2 40 6 31 6 -14 70 -3 66 11 -1 6 -25 10 -52 10 -28 0 -50 3 -50
8 0 4 6 7 14 7 18 0 76 32 76 43 0 10 -45 27 -73 27 -12 1 -35 12 -52 25 l-30
25 37 0 c20 0 40 5 43 10 4 6 10 8 15 5 4 -3 14 2 21 11 10 12 10 15 -1 12 -7
-2 -15 3 -17 10 -3 6 0 12 6 12 21 0 11 15 -19 28 -25 11 -30 20 -30 47 0 49
-17 80 -51 92 -35 14 -38 33 -5 33 32 0 83 45 62 53 -8 3 -30 3 -48 0 -24 -3
-38 0 -47 11 -7 9 -25 16 -38 16 -21 0 -23 2 -13 15 10 12 7 15 -14 21 -27 6
-35 29 -13 37 7 4 3 8 -11 13 -18 5 -20 9 -11 20 6 8 15 11 20 8 5 -3 6 2 3
10 -3 9 -12 12 -22 8 -15 -5 -15 -4 -2 9 8 8 23 18 33 22 20 8 23 27 3 27 -16
0 -29 41 -20 64 4 11 0 16 -11 16 -17 0 -17 1 -2 18 24 26 25 47 2 48 -11 1
-31 2 -45 3 l-25 2 23 12 c12 7 20 16 16 20 -4 4 -13 2 -20 -4 -17 -14 -34 -3
-29 20 2 10 0 24 -5 31 -6 10 -11 7 -19 -9 -7 -12 -8 -21 -2 -21 5 0 9 -9 8
-20 -1 -11 -5 -20 -10 -20 -5 0 -7 -7 -3 -15 4 -10 -1 -15 -14 -15 -31 0 -23
-20 10 -26 17 -4 30 -13 30 -22 0 -12 -9 -14 -48 -9 -41 5 -50 3 -60 -14 -10
-16 -10 -20 0 -18 7 1 31 1 53 0 34 -1 38 -3 23 -14 -13 -10 -14 -17 -5 -32 9
-18 9 -18 -5 -7 -11 9 -18 9 -23 3 -9 -15 12 -49 35 -56 26 -8 26 -25 0 -25
-13 0 -18 -5 -14 -15 5 -11 -2 -15 -27 -16 -19 0 -28 -3 -21 -6 19 -8 14 -21
-14 -36 l-26 -14 26 -20 c18 -14 24 -27 20 -39 -4 -12 -3 -15 3 -8 9 12 73 7
73 -6 0 -14 -23 -17 -63 -8 -39 9 -137 -15 -137 -33 0 -5 -11 -7 -25 -3 -30 7
-75 -2 -75 -16 0 -6 7 -10 15 -10 8 0 15 -7 15 -15 0 -14 12 -19 33 -16 4 0 7
-3 7 -9 0 -5 7 -10 16 -10 9 0 34 -5 55 -12 31 -9 37 -14 28 -25 -6 -7 -28
-13 -49 -13 -48 0 -72 -24 -44 -45 16 -13 17 -16 4 -25 -8 -5 -24 -10 -35 -10
-25 0 -65 -27 -65 -44 0 -6 10 -12 23 -12 31 0 96 -15 101 -23 3 -4 -12 -8
-32 -9 -20 -2 -41 -8 -47 -16 -5 -7 -25 -13 -44 -13 -56 0 -79 -56 -45 -108
11 -17 25 -25 46 -25 19 0 27 -4 22 -11 -4 -7 5 -9 29 -6 28 4 34 1 33 -12 -2
-11 -15 -17 -44 -19 -22 -2 -46 -10 -54 -19 -11 -14 -10 -15 10 -9 12 4 22 3
22 -2 0 -5 -9 -12 -20 -15 -12 -3 -22 -17 -26 -35 -4 -18 -14 -32 -25 -35 -24
-6 -25 -27 -1 -27 16 -1 16 -1 0 -14 -20 -15 -24 -36 -7 -36 6 0 9 -7 5 -15
-5 -15 13 -20 57 -17 9 1 17 -3 17 -8 0 -6 -8 -10 -17 -10 -10 -1 -3 -7 15
-15 21 -9 40 -12 50 -6 10 4 24 6 32 4 9 -3 8 2 -5 13 -14 11 -16 18 -7 21 6
3 10 8 7 13 -6 10 24 35 32 26 4 -4 1 -11 -7 -17 -13 -8 -13 -10 0 -19 11 -7
16 -5 18 5 4 17 18 20 27 5 4 -6 12 -10 18 -9 36 4 40 -2 18 -25 -19 -21 -20
-24 -6 -30 21 -8 25 -8 24 2 -3 20 2 32 16 32 8 0 15 -3 15 -8 0 -4 10 -12 22
-17 25 -11 37 -37 17 -34 -40 5 -71 -2 -66 -15 5 -11 -5 -13 -53 -9 -45 4 -65
2 -84 -11 -14 -9 -40 -16 -58 -17 -44 -1 -73 -13 -73 -30 0 -14 38 -39 60 -39
6 0 19 -8 28 -18 15 -16 13 -17 -42 -19 -32 0 -67 -6 -78 -11 -11 -6 -25 -7
-35 -1 -10 6 -26 5 -41 0 -16 -6 -28 -6 -36 2 -8 8 -11 7 -11 -6 0 -9 -5 -17
-11 -17 -14 0 -48 -41 -49 -59 0 -7 6 -11 15 -8 24 10 27 -10 4 -27 -12 -8
-18 -19 -14 -25 10 -17 23 -13 21 6 0 10 4 18 9 18 6 0 15 3 20 7 6 3 31 6 57
5 37 0 45 -3 37 -13 -7 -9 -5 -13 11 -16 l21 -3 -21 -18 c-21 -18 -22 -18 -27
2 -7 29 -27 27 -110 -12 -25 -11 -32 -33 -8 -23 8 3 15 1 15 -4 0 -6 -7 -10
-15 -10 -9 0 -12 -6 -9 -15 4 -8 0 -23 -7 -32 -12 -15 -11 -16 9 -11 12 4 22
2 22 -3 0 -5 9 -9 19 -9 11 0 21 -7 23 -16 4 -21 56 -28 77 -11 12 10 14 9 8
-6 -6 -15 -3 -17 13 -12 12 4 20 2 20 -5 0 -7 8 -6 23 3 23 14 123 17 144 4 6
-4 18 -5 25 -2 8 3 21 -1 28 -10 11 -13 9 -15 -12 -15 -17 0 -24 -6 -24 -20 0
-11 6 -20 13 -20 17 0 17 -20 1 -21 -68 -6 -88 -9 -123 -15 -22 -3 -48 -12
-59 -20 -10 -7 -25 -10 -34 -7 -8 4 -20 -1 -27 -11 -7 -9 -17 -16 -21 -14 -5
1 -25 -6 -44 -17 -37 -20 -52 -25 -85 -29 -73 -9 -83 -16 -82 -52 1 -25 5 -33
15 -29 7 2 11 1 8 -4 -3 -5 0 -11 7 -14 18 -7 117 4 117 13 0 5 9 6 20 3 11
-3 20 -10 20 -15 0 -5 -4 -7 -9 -3 -16 9 -22 -13 -10 -34 10 -15 9 -22 -4 -36
-9 -9 -17 -21 -17 -27 0 -5 -7 -7 -16 -4 -12 4 -15 2 -11 -8 4 -11 -13 -25
-60 -48 -36 -18 -68 -40 -71 -50 -3 -14 -16 -17 -86 -15 -56 1 -81 6 -82 15
-1 6 -2 16 -3 22 0 5 -19 13 -41 16 -40 6 -40 7 -20 24 12 10 29 16 40 13 11
-3 20 0 20 6 0 7 21 10 62 9 54 -3 63 -1 66 16 5 25 -14 36 -66 36 -31 0 -42
4 -39 13 3 8 21 11 51 10 40 -3 46 0 46 17 0 22 3 21 -122 23 -54 2 -82 7 -92
17 -21 21 -7 37 34 42 19 1 38 7 41 11 5 7 26 14 52 16 4 1 7 8 7 17 0 10 6
14 14 11 14 -6 31 19 27 37 -1 5 7 15 19 23 43 31 5 63 -75 63 -49 0 -67 16
-41 36 12 8 16 19 11 33 -5 15 -2 21 9 21 9 0 16 8 16 18 0 21 -38 42 -77 42
-29 0 -93 21 -93 30 0 5 13 8 53 10 6 1 29 -1 49 -4 29 -5 40 -2 50 12 7 10
26 22 41 26 15 3 25 11 22 16 -3 5 -1 12 5 15 27 16 -15 32 -100 39 -49 4
-111 13 -137 21 -26 8 -58 15 -71 15 -25 0 -57 32 -57 57 0 9 -15 21 -35 29
-26 9 -30 13 -13 13 40 2 73 -17 73 -41 l1 -23 18 23 c19 22 41 28 54 15 4 -3
0 -15 -10 -25 -14 -16 -14 -18 0 -18 8 0 17 -6 20 -12 3 -9 10 -8 26 6 15 13
18 23 11 30 -5 5 -10 18 -10 27 0 28 -27 44 -54 31 -19 -8 -31 -5 -72 20 -60
37 -62 40 -46 45 10 4 9 10 -5 25 -18 20 -17 21 3 10 12 -6 37 -9 57 -5 31 5
35 8 27 24 -13 24 -13 26 10 32 17 4 20 0 20 -23 0 -52 63 -77 99 -41 17 17
19 31 16 95 -3 57 -1 77 10 86 25 20 17 39 -17 44 -102 15 -144 15 -167 0 -21
-15 -26 -15 -72 7 -40 18 -47 25 -33 32 8 5 27 7 42 4 32 -6 52 1 52 19 0 16
-39 34 -75 34 -32 0 -40 16 -24 46 10 20 18 24 41 19 32 -7 35 0 11 27 -9 10
-13 21 -9 25 13 13 98 7 107 -8 7 -11 9 -11 9 -1 0 18 25 42 43 42 29 0 39 26
19 50 -20 24 -72 37 -189 47 -49 4 -62 8 -66 24 -3 10 -12 19 -20 19 -8 0 -17
9 -20 21 -4 14 -2 19 8 15 7 -2 16 -2 20 2 4 4 10 7 13 8 11 1 45 15 64 25 11
5 19 5 23 -1 8 -13 25 -3 25 14 0 28 -146 64 -181 45 -19 -10 -21 -9 -15 6 4
11 -2 23 -16 36 l-23 18 28 1 c29 0 34 9 15 28 -8 8 -8 12 -1 12 20 0 24 32 6
46 -17 13 -17 14 1 8 15 -6 17 -3 11 14 -5 17 -2 22 12 23 10 0 13 3 6 6 -7 2
-13 13 -13 24 0 16 3 17 18 8 14 -9 26 -7 56 8 l39 20 -37 22 c-39 24 -42 31
-24 49 8 8 8 15 -3 28 -11 14 -25 15 -80 10 -53 -5 -69 -3 -79 9 -9 10 -9 15
-1 15 6 0 11 8 12 18 0 9 3 12 5 6 6 -15 96 5 91 20 -2 6 -35 13 -73 16 -49 4
-63 8 -49 14 113 47 126 60 74 71 -22 5 -29 11 -25 22 4 9 1 21 -5 29 -13 15
-39 8 -39 -12 0 -21 -37 -17 -70 8 -17 12 -30 24 -30 27 0 3 22 6 49 6 27 -1
49 2 49 5 -1 17 3 21 15 12 8 -7 18 -3 32 11 16 16 17 19 3 14 -9 -3 -22 1
-29 9 -10 12 -9 16 9 21 31 8 27 22 -8 30 -16 3 -30 9 -30 14 0 5 -5 8 -11 6
-6 -1 -12 17 -13 43 -3 55 -30 110 -54 110 -9 0 -30 9 -47 20 l-30 20 33 1
c46 2 44 1 86 35 33 28 36 33 20 38 -11 3 -42 5 -70 3 -38 -1 -57 3 -71 16
-11 9 -32 17 -48 17 -22 0 -25 3 -16 13 13 16 -4 37 -30 37 -20 0 -19 27 2 41
11 7 10 9 -6 10 -11 1 -25 2 -32 2 -9 0 -9 4 0 18 7 11 18 19 25 19 8 0 12 6
9 13 -2 6 -15 11 -28 10 -15 -1 -17 0 -6 3 9 3 17 10 17 15 0 5 11 14 25 19
30 11 32 26 5 33 -11 3 -19 9 -18 14 1 4 -3 18 -10 30 -10 18 -9 23 4 31 20
11 9 36 -12 28 -19 -7 -18 1 6 31 28 36 26 53 -7 51 -16 -1 -41 -1 -58 0 -28
3 -29 3 -11 17 10 8 23 12 27 9 5 -3 9 -1 9 5 0 16 -22 25 -30 11 -13 -21 -44
-7 -45 20 0 30 -24 74 -26 50z m-16 -592 c31 1 36 -13 10 -26 -25 -13 -93 -3
-93 13 0 17 20 25 40 18 8 -4 27 -6 43 -5z m-218 -688 c17 -7 15 -9 -12 -9
-17 -1 -35 4 -38 9 -7 12 22 12 50 0z m-181 -200 c-7 -7 -19 -7 -35 -1 -23 9
-22 10 11 10 23 1 31 -2 24 -9z m161 -49 c-6 -5 -21 -12 -35 -16 -24 -7 -24
-7 -5 9 21 16 56 23 40 7z m1895 -293 c0 -7 -5 -20 -10 -28 -8 -13 -11 -12
-24 5 -11 15 -11 22 -3 27 18 12 37 9 37 -4z m55 -158 l20 -9 -20 0 c-11 0
-27 4 -35 9 -13 9 -13 10 0 9 8 0 24 -4 35 -9z m-150 -160 c3 -6 -1 -7 -9 -4
-18 7 -21 14 -7 14 6 0 13 -4 16 -10z m-2216 -44 c-12 -10 -49 -16 -49 -7 0
16 34 31 44 21 5 -6 8 -11 5 -14z m601 -106 l25 -7 -30 -7 c-16 -4 -38 -12
-48 -17 -13 -7 -23 -7 -32 1 -8 7 -19 8 -26 4 -7 -4 -10 -2 -7 7 3 8 18 14 36
14 18 0 32 3 32 7 0 9 16 9 50 -2z m1620 -289 c0 -12 -21 -28 -53 -40 -26 -10
-27 -9 -17 9 6 11 15 18 20 15 5 -3 15 1 22 9 15 17 28 20 28 7z m-180 -120
c0 -5 -7 -11 -15 -15 -15 -5 -20 5 -8 17 9 10 23 9 23 -2z m453 -92 c7 0 -5
-7 -26 -14 -24 -9 -45 -11 -60 -6 -17 7 -18 10 -7 14 28 11 55 15 68 11 8 -2
19 -4 25 -5z m-458 -629 c-3 -5 -30 -20 -61 -34 -43 -20 -60 -23 -75 -16 -34
19 -20 30 36 30 32 0 55 4 55 11 0 5 5 7 10 4 6 -3 13 1 16 9 3 9 10 13 15 10
5 -3 7 -9 4 -14z m-85 -211 c0 -6 -4 -7 -10 -4 -5 3 -10 11 -10 16 0 6 5 7 10
4 6 -3 10 -11 10 -16z m17 -95 c-3 -3 -12 -4 -19 -1 -8 3 -5 6 6 6 11 1 17 -2
13 -5z m-29 -71 c2 -9 -8 -13 -32 -13 -26 0 -36 4 -36 16 0 19 61 16 68 -3z
m32 -13 c0 -5 -4 -10 -10 -10 -5 0 -10 5 -10 10 0 6 5 10 10 10 6 0 10 -4 10
-10z m-374 -235 c-3 -9 -10 -13 -16 -10 -6 4 -5 11 3 20 15 16 22 11 13 -10z
m-1801 -503 c-8 -8 -25 10 -25 26 0 13 2 13 14 -4 8 -10 13 -21 11 -22z"/>
<path d="M3205 6704 c-26 -26 -16 -86 17 -102 54 -26 114 30 87 81 -7 12 -17
25 -23 29 -19 13 -64 9 -81 -8z"/>
<path d="M10979 6704 c-11 -14 -10 -18 6 -30 16 -12 21 -12 33 0 17 17 9 46
-11 46 -8 0 -21 -7 -28 -16z"/>
<path d="M9797 6694 c-8 -8 1 -24 14 -24 5 0 9 7 9 15 0 15 -12 20 -23 9z"/>
<path d="M1886 6647 c-28 -21 -15 -56 31 -90 41 -29 43 -29 68 -13 39 26 29
81 -17 90 -12 3 -46 15 -59 22 -3 2 -14 -2 -23 -9z"/>
<path d="M10024 6615 c-15 -23 -15 -27 0 -50 28 -42 86 -28 86 21 0 52 -58 71
-86 29z"/>
<path d="M7700 6570 c0 -5 7 -10 15 -10 8 0 15 5 15 10 0 6 -7 10 -15 10 -8 0
-15 -4 -15 -10z"/>
<path d="M590 6545 c-26 -32 13 -81 48 -59 34 22 22 74 -18 74 -10 0 -23 -7
-30 -15z"/>
<path d="M3174 6525 c-13 -21 -15 -31 -6 -50 21 -45 93 -42 105 4 15 59 -65
97 -99 46z"/>
<path d="M5102 6507 c-12 -13 -22 -33 -22 -45 0 -25 33 -62 55 -62 8 0 15 -8
15 -18 0 -39 51 -63 95 -46 43 17 37 96 -10 114 -15 6 -25 17 -25 29 0 23 -36
51 -65 51 -12 0 -31 -10 -43 -23z"/>
<path d="M3700 6510 c0 -5 5 -10 11 -10 5 0 7 5 4 10 -3 6 -8 10 -11 10 -2 0
-4 -4 -4 -10z"/>
<path d="M5311 6494 c-27 -35 -26 -59 4 -89 45 -46 115 -19 115 45 0 65 -79
94 -119 44z"/>
<path d="M6640 6445 c-17 -20 -5 -45 20 -45 11 0 23 7 26 15 6 15 -11 45 -26
45 -4 0 -13 -7 -20 -15z"/>
<path d="M6952 6428 c-6 -6 -12 -19 -12 -28 0 -8 -10 -20 -22 -25 -28 -12 -31
-53 -5 -69 22 -14 51 3 55 33 2 12 7 19 12 16 5 -3 19 4 30 15 19 19 20 24 7
43 -17 26 -47 33 -65 15z"/>
<path d="M170 6410 c-11 -11 -20 -33 -20 -50 0 -65 79 -94 119 -44 26 34 26
54 0 88 -25 32 -70 35 -99 6z"/>
<path d="M10994 6396 c-12 -31 0 -51 31 -51 27 0 30 3 30 30 0 25 -4 30 -28
33 -17 2 -29 -2 -33 -12z"/>
<path d="M3066 6384 c-32 -31 -11 -104 30 -104 8 0 19 -12 24 -26 8 -20 16
-25 37 -22 30 3 41 26 27 56 -4 9 -8 32 -9 49 -1 18 -8 39 -15 48 -16 20 -74
19 -94 -1z"/>
<path d="M11982 6378 c-15 -15 -3 -38 19 -38 12 0 19 7 19 19 0 22 -23 34 -38
19z"/>
<path d="M8420 6350 c0 -5 5 -10 10 -10 6 0 10 5 10 10 0 6 -4 10 -10 10 -5 0
-10 -4 -10 -10z"/>
<path d="M5045 6340 c-3 -5 1 -10 9 -10 9 0 16 5 16 10 0 6 -4 10 -9 10 -6 0
-13 -4 -16 -10z"/>
<path d="M3860 6325 c-7 -8 -10 -25 -6 -39 8 -33 42 -43 67 -20 23 21 24 37 3
58 -20 20 -48 20 -64 1z"/>
<path d="M3482 6193 c4 -21 33 -25 33 -3 0 8 -8 16 -18 18 -14 3 -18 -1 -15
-15z"/>
<path d="M4042 6178 c-7 -7 -12 -18 -12 -25 0 -15 30 -32 48 -26 17 7 15 50
-4 57 -20 8 -18 8 -32 -6z"/>
<path d="M12256 6152 c-3 -6 -1 -14 5 -17 15 -10 25 3 12 16 -7 7 -13 7 -17 1z"/>
<path d="M6557 6143 c-14 -13 -7 -33 11 -33 24 0 32 8 25 26 -5 15 -25 19 -36
7z"/>
<path d="M5790 6075 c-7 -8 -10 -25 -6 -39 8 -33 42 -43 67 -20 23 21 24 37 3
58 -20 20 -48 20 -64 1z"/>
<path d="M6077 6039 c-67 -52 4 -152 72 -102 32 25 40 72 14 95 -32 28 -58 30
-86 7z"/>
<path d="M10653 6024 c-3 -8 2 -23 11 -32 15 -15 17 -15 32 0 21 21 11 48 -16
48 -11 0 -23 -7 -27 -16z"/>
<path d="M12700 6020 c-11 -11 -20 -29 -20 -40 0 -11 9 -29 20 -40 11 -11 29
-20 40 -20 11 0 29 9 40 20 11 11 20 29 20 40 0 11 -9 29 -20 40 -11 11 -29
20 -40 20 -11 0 -29 -9 -40 -20z"/>
<path d="M3769 6007 c-62 -48 -34 -137 43 -137 65 0 93 89 42 129 -30 23 -61
26 -85 8z"/>
<path d="M5627 6013 c-11 -11 -8 -48 5 -61 32 -32 80 8 58 48 -10 19 -49 27
-63 13z"/>
<path d="M5549 5956 c-9 -20 -9 -29 1 -41 28 -34 87 5 64 43 -18 28 -52 27
-65 -2z"/>
<path d="M11125 5925 c-57 -57 1 -146 76 -115 56 24 59 103 3 129 -37 16 -52
14 -79 -14z"/>
<path d="M9750 5835 c0 -8 7 -15 15 -15 8 0 15 7 15 15 0 8 -7 15 -15 15 -8 0
-15 -7 -15 -15z"/>
<path d="M11637 5839 c-39 -22 -4 -79 35 -58 10 5 18 18 18 29 0 25 -30 41
-53 29z"/>
<path d="M10992 5824 c-24 -17 -30 -62 -10 -82 37 -37 113 12 88 57 -9 17 -39
41 -52 41 -2 0 -14 -7 -26 -16z"/>
<path d="M9606 5804 c-7 -19 10 -44 30 -44 20 0 36 34 22 48 -17 17 -45 15
-52 -4z"/>
<path d="M12512 5804 c-15 -11 -22 -25 -22 -50 0 -67 73 -99 118 -51 61 65
-22 153 -96 101z"/>
<path d="M2998 5769 c-12 -6 -18 -22 -18 -45 0 -46 36 -66 75 -40 60 39 5 121
-57 85z"/>
<path d="M5046 5758 c-21 -29 -20 -41 2 -61 37 -34 82 -15 82 35 0 47 -57 65
-84 26z"/>
<path d="M5580 5755 c-26 -32 13 -81 48 -59 34 22 22 74 -18 74 -10 0 -23 -7
-30 -15z"/>
<path d="M11882 5758 c-28 -28 -7 -78 33 -78 27 0 45 18 45 45 0 27 -18 45
-45 45 -12 0 -26 -5 -33 -12z"/>
<path d="M3800 5674 c-10 -11 -11 -23 -4 -42 12 -35 53 -41 79 -12 15 17 16
24 7 45 -14 29 -61 35 -82 9z"/>
<path d="M4080 5653 c-34 -43 -2 -113 52 -113 11 0 27 -4 37 -10 20 -10 61 12
61 33 0 15 -33 81 -50 102 -21 25 -76 19 -100 -12z"/>
<path d="M7831 5651 c-13 -24 8 -55 34 -50 28 6 42 34 26 53 -18 22 -48 20
-60 -3z"/>
<path d="M10536 5663 c-11 -11 -6 -23 9 -23 8 0 15 4 15 9 0 13 -16 22 -24 14z"/>
<path d="M11442 5608 c-29 -29 3 -88 47 -88 34 0 51 17 51 50 0 34 -17 50 -55
50 -17 0 -36 -5 -43 -12z"/>
<path d="M6426 5581 c-10 -16 5 -41 24 -41 19 0 30 17 23 38 -5 14 -39 16 -47
3z"/>
<path d="M12086 5514 c-19 -18 -19 -20 -6 -45 6 -11 21 -19 35 -19 20 0 45 24
45 44 0 10 -32 36 -45 36 -7 0 -21 -7 -29 -16z"/>
<path d="M8343 5484 c-8 -21 13 -42 28 -27 13 13 5 43 -11 43 -6 0 -13 -7 -17
-16z"/>
<path d="M2220 5460 c0 -5 5 -10 10 -10 6 0 10 5 10 10 0 6 -4 10 -10 10 -5 0
-10 -4 -10 -10z"/>
<path d="M6710 5440 c-11 -11 -20 -33 -20 -49 0 -71 80 -101 127 -47 28 33 29
56 2 90 -26 33 -79 36 -109 6z"/>
<path d="M5530 5436 c-19 -23 -8 -61 18 -64 44 -7 67 32 36 62 -19 20 -38 20
-54 2z"/>
<path d="M6386 5434 c-21 -21 -20 -57 2 -77 24 -22 55 -21 75 1 34 37 11 92
-38 92 -13 0 -31 -7 -39 -16z"/>
<path d="M5302 5373 c2 -10 10 -18 18 -18 8 0 16 8 18 18 2 12 -3 17 -18 17
-15 0 -20 -5 -18 -17z"/>
<path d="M11720 5350 c-11 -11 -20 -27 -20 -35 0 -18 35 -55 53 -55 43 0 68
59 38 89 -26 26 -46 26 -71 1z"/>
<path d="M8219 5328 c-37 -41 -38 -91 -1 -96 14 -2 32 4 43 15 10 10 25 24 34
31 22 18 19 48 -7 66 -31 22 -35 21 -69 -16z"/>
<path d="M6290 5276 c-31 -38 9 -89 54 -68 45 20 30 82 -20 82 -12 0 -27 -7
-34 -14z"/>
<path d="M10661 5224 c-12 -15 -21 -31 -21 -36 0 -15 48 -58 65 -58 21 0 55
36 55 60 0 25 -34 60 -59 60 -11 0 -29 -12 -40 -26z"/>
<path d="M5204 5229 c-10 -17 13 -36 27 -22 12 12 4 33 -11 33 -5 0 -12 -5
-16 -11z"/>
<path d="M302 5204 c4 -21 22 -23 26 -1 2 10 -3 17 -13 17 -10 0 -15 -6 -13
-16z"/>
<path d="M9593 5191 c-10 -10 -27 -20 -38 -22 -10 -2 -26 -16 -34 -30 -13 -24
-13 -29 2 -53 18 -27 69 -37 83 -15 7 11 66 8 96 -5 11 -5 24 0 37 13 25 25
27 46 5 63 -9 7 -28 25 -42 41 -32 33 -82 37 -109 8z"/>
<path d="M9200 5170 c-11 -11 -20 -29 -20 -40 0 -27 35 -60 63 -60 31 0 57 29
57 63 0 53 -61 76 -100 37z"/>
<path d="M58 5129 c-21 -12 -24 -49 -6 -67 19 -19 56 -14 68 9 9 16 8 26 -5
45 -17 26 -30 29 -57 13z"/>
<path d="M4730 5120 c-11 -11 -20 -27 -20 -35 0 -18 35 -55 53 -55 43 0 68 59
38 89 -26 26 -46 26 -71 1z"/>
<path d="M6606 5098 c-9 -12 -16 -32 -16 -44 0 -23 42 -64 65 -64 26 0 65 41
65 69 0 57 -82 85 -114 39z"/>
<path d="M5665 5081 c-7 -12 12 -24 25 -16 11 7 4 25 -10 25 -5 0 -11 -4 -15
-9z"/>
<path d="M7490 5020 c-40 -40 -21 -104 35 -124 l20 -7 -20 -11 c-28 -16 -35
-28 -35 -65 0 -60 70 -83 115 -38 14 13 25 20 25 16 0 -17 34 -22 48 -7 13 13
18 13 39 -1 22 -14 25 -14 43 2 20 18 21 18 35 -1 13 -18 15 -18 32 -1 16 16
16 18 1 34 -14 13 -20 14 -32 4 -12 -10 -15 -8 -21 8 -3 10 -13 22 -21 25 -18
7 -54 -10 -54 -26 0 -7 -5 -6 -15 2 -8 7 -25 10 -39 6 -19 -5 -26 -1 -31 14
-4 11 -21 27 -38 34 -18 8 -25 15 -16 15 25 1 52 38 52 71 0 63 -78 95 -123
50z"/>
<path d="M12372 5001 c-8 -5 -12 -21 -10 -37 4 -35 44 -47 65 -18 17 23 16 29
-3 48 -17 18 -32 20 -52 7z"/>
<path d="M9220 4980 c-43 -43 -11 -120 49 -120 32 0 71 39 71 70 0 10 -9 29
-21 44 -25 32 -70 35 -99 6z"/>
<path d="M10928 4979 c-18 -10 -38 -67 -38 -111 0 -29 40 -68 70 -68 10 0 29
9 44 21 22 18 26 28 26 75 0 41 -5 59 -20 74 -22 22 -55 25 -82 9z"/>
<path d="M11568 4959 c-27 -15 -23 -57 7 -71 19 -8 28 -8 40 2 21 18 19 57 -4
70 -23 12 -22 12 -43 -1z"/>
<path d="M6011 4947 c-16 -16 -14 -34 5 -41 21 -8 34 1 34 24 0 22 -23 33 -39
17z"/>
<path d="M6196 4934 c-4 -10 -2 -22 3 -27 14 -14 43 0 39 20 -4 24 -34 28 -42
7z"/>
<path d="M7770 4935 c-18 -22 -1 -50 31 -50 20 0 24 5 24 30 0 23 -5 31 -21
33 -11 2 -27 -4 -34 -13z"/>
<path d="M4540 4916 c-27 -33 18 -72 48 -42 13 13 14 20 6 34 -15 23 -38 26
-54 8z"/>
<path d="M4960 4895 c-11 -13 -11 -19 3 -32 21 -21 49 -9 45 19 -4 28 -30 35
-48 13z"/>
<path d="M7183 4894 c-8 -21 13 -42 28 -27 13 13 5 43 -11 43 -6 0 -13 -7 -17
-16z"/>
<path d="M205 4785 c-29 -28 -31 -42 -9 -73 18 -26 75 -30 94 -7 20 24 15 67
-10 87 -30 24 -46 23 -75 -7z"/>
<path d="M7046 4795 c-9 -9 -16 -20 -16 -25 0 -15 32 -41 48 -38 24 5 39 35
26 56 -15 23 -38 26 -58 7z"/>
<path d="M6822 4707 c-15 -17 1 -42 23 -33 18 6 17 37 -1 43 -6 2 -16 -2 -22
-10z"/>
<path d="M4160 4675 c0 -8 5 -15 10 -15 6 0 10 -13 10 -30 0 -52 67 -69 96
-25 13 21 15 31 6 50 -13 28 -56 43 -76 26 -10 -8 -16 -9 -21 -1 -9 15 -25 12
-25 -5z"/>
<path d="M2704 4603 c-48 -52 -52 -67 -28 -101 16 -23 67 -31 79 -13 3 5 19
12 35 16 58 13 79 83 37 123 -38 36 -73 29 -123 -25z"/>
<path d="M8426 4584 c-33 -33 -7 -94 41 -94 42 0 71 68 41 98 -17 17 -64 15
-82 -4z"/>
<path d="M2366 4544 c-21 -21 -20 -37 5 -60 15 -13 24 -16 36 -8 32 20 38 41
19 63 -23 25 -39 26 -60 5z"/>
<path d="M6946 4539 c-52 -41 -25 -119 42 -119 66 0 94 69 47 115 -30 30 -54
31 -89 4z"/>
<path d="M5707 4524 c-14 -14 -7 -35 11 -32 9 2 17 10 17 17 0 16 -18 25 -28
15z"/>
<path d="M5778 4485 c-17 -37 3 -75 40 -75 35 0 52 16 52 50 0 34 -17 50 -52
50 -21 0 -32 -7 -40 -25z"/>
<path d="M3997 4493 c-12 -12 -7 -50 8 -63 8 -6 23 -9 34 -5 25 8 36 41 21 60
-13 15 -51 20 -63 8z"/>
<path d="M8180 4480 c0 -5 5 -10 10 -10 6 0 10 5 10 10 0 6 -4 10 -10 10 -5 0
-10 -4 -10 -10z"/>
<path d="M7640 4473 c-45 -16 -54 -83 -15 -109 49 -32 106 11 92 69 -5 18 -47
51 -60 46 -1 0 -9 -3 -17 -6z"/>
<path d="M12256 4438 c-9 -12 -16 -30 -16 -40 0 -24 35 -58 60 -58 27 0 60 35
60 63 0 53 -75 77 -104 35z"/>
<path d="M7153 4423 c-7 -2 -13 -16 -13 -29 0 -19 5 -24 25 -24 30 0 43 24 25
45 -13 16 -17 17 -37 8z"/>
<path d="M8574 4356 c-3 -8 -4 -25 -2 -38 2 -19 9 -23 38 -23 33 0 35 2 35 35
0 32 -3 35 -33 38 -21 2 -34 -2 -38 -12z"/>
<path d="M8321 4334 c-27 -35 -26 -59 4 -89 45 -46 115 -19 115 45 0 65 -79
94 -119 44z"/>
<path d="M7466 4308 c-21 -30 -20 -54 4 -78 41 -41 103 -16 103 40 0 58 -75
84 -107 38z"/>
<path d="M7820 4310 c0 -5 4 -10 9 -10 6 0 13 5 16 10 3 6 -1 10 -9 10 -9 0
-16 -4 -16 -10z"/>
<path d="M9611 4306 c-26 -31 14 -71 45 -45 8 7 14 22 12 33 -4 26 -40 33 -57
12z"/>
<path d="M9900 4255 c-7 -8 -12 -26 -12 -40 0 -34 19 -55 52 -55 50 0 79 60
44 94 -20 20 -68 21 -84 1z"/>
<path d="M6870 4160 c-41 -41 -13 -110 44 -110 19 0 40 8 49 18 37 41 6 112
-48 112 -14 0 -34 -9 -45 -20z"/>
<path d="M5902 4139 c2 -6 8 -10 13 -10 5 0 11 4 13 10 2 6 -4 11 -13 11 -9 0
-15 -5 -13 -11z"/>
<path d="M10045 4125 c-14 -13 -25 -36 -25 -50 0 -33 42 -75 75 -75 33 0 75
42 75 75 0 33 -42 75 -75 75 -14 0 -37 -11 -50 -25z"/>
<path d="M12310 4081 c-16 -31 -12 -49 15 -67 23 -15 27 -15 50 0 27 18 33 54
13 74 -19 19 -66 15 -78 -7z"/>
<path d="M7116 4044 c-9 -8 -16 -22 -16 -29 0 -17 27 -45 44 -45 15 0 46 32
46 47 0 13 -33 43 -48 43 -6 0 -18 -7 -26 -16z"/>
<path d="M8652 4025 c-12 -14 -26 -25 -32 -25 -21 0 -9 -29 18 -44 76 -42 71
-41 100 -19 15 11 28 32 30 47 8 62 -73 90 -116 41z"/>
<path d="M10837 4044 c-11 -11 5 -34 24 -34 12 0 19 7 19 20 0 19 -28 28 -43
14z"/>
<path d="M9877 4022 c-37 -41 -11 -102 42 -102 55 0 80 61 41 100 -25 25 -62
26 -83 2z"/>
<path d="M10060 3955 c-11 -13 -11 -19 3 -32 21 -21 49 -9 45 19 -4 28 -30 35
-48 13z"/>
<path d="M9986 3925 c-9 -9 -16 -20 -16 -25 0 -15 32 -41 48 -38 24 5 39 35
26 56 -15 23 -38 26 -58 7z"/>
<path d="M10850 3912 c-56 -19 -26 -105 30 -87 21 7 36 46 25 64 -10 17 -39
29 -55 23z"/>
<path d="M11053 3804 c-8 -22 10 -49 32 -49 10 0 22 7 28 16 15 24 1 49 -28
49 -15 0 -28 -7 -32 -16z"/>
<path d="M11875 3776 c-23 -34 -5 -66 36 -66 41 0 61 40 34 70 -24 27 -51 25
-70 -4z"/>
<path d="M2662 3678 c5 -15 28 -23 28 -10 0 5 -7 13 -16 16 -10 4 -14 1 -12
-6z"/>
<path d="M2703 3676 c0 -8 6 -12 14 -9 7 3 10 9 7 14 -8 14 -21 11 -21 -5z"/>
<path d="M9360 3660 c0 -5 5 -10 10 -10 6 0 10 5 10 10 0 6 -4 10 -10 10 -5 0
-10 -4 -10 -10z"/>
<path d="M4580 3650 c0 -5 5 -10 10 -10 6 0 10 5 10 10 0 6 -4 10 -10 10 -5 0
-10 -4 -10 -10z"/>
<path d="M10075 3550 c-4 -7 -3 -16 3 -22 14 -14 45 -2 40 15 -6 16 -34 21
-43 7z"/>
<path d="M9213 3464 c-9 -23 13 -40 32 -24 12 10 13 16 4 26 -15 18 -28 18
-36 -2z"/>
<path d="M12013 3421 c-24 -20 -30 -46 -13 -56 17 -10 75 29 75 51 0 26 -34
29 -62 5z"/>
<path d="M12625 3224 c-18 -18 -16 -33 7 -47 21 -14 48 -2 48 22 0 30 -34 45
-55 25z"/>
<path d="M9720 3090 c0 -5 5 -10 10 -10 6 0 10 5 10 10 0 6 -4 10 -10 10 -5 0
-10 -4 -10 -10z"/>
<path d="M34 3035 c-7 -29 10 -55 36 -55 24 0 42 24 38 52 -2 18 -10 24 -35
26 -28 3 -33 -1 -39 -23z"/>
<path d="M10882 3018 c-31 -31 7 -81 43 -55 23 18 16 61 -10 65 -11 1 -26 -3
-33 -10z"/>
<path d="M9723 2918 c-19 -24 -23 -65 -9 -77 19 -16 39 -5 55 29 10 24 10 34
1 45 -15 18 -34 19 -47 3z"/>
<path d="M11314 2919 c-3 -6 0 -17 8 -25 13 -13 16 -13 27 0 7 8 10 20 6 26
-8 13 -32 13 -41 -1z"/>
<path d="M10485 2868 c-28 -16 -35 -28 -35 -65 0 -41 42 -77 80 -68 58 14 78
78 35 120 -26 27 -49 31 -80 13z"/>
<path d="M12501 2851 c-13 -24 8 -55 34 -50 28 6 42 34 26 53 -18 22 -48 20
-60 -3z"/>
<path d="M9835 2760 c-4 -7 -3 -16 3 -22 14 -14 45 -2 40 15 -6 16 -34 21 -43
7z"/>
<path d="M9520 2690 c0 -5 5 -10 10 -10 6 0 10 5 10 10 0 6 -4 10 -10 10 -5 0
-10 -4 -10 -10z"/>
<path d="M11934 2686 c-8 -22 3 -33 18 -18 9 9 9 15 0 24 -9 9 -13 7 -18 -6z"/>
<path d="M11275 2670 c-4 -7 -3 -16 3 -22 14 -14 45 -2 40 15 -6 16 -34 21
-43 7z"/>
<path d="M378 2638 c5 -5 16 -8 23 -6 8 3 3 7 -10 11 -17 4 -21 3 -13 -5z"/>
<path d="M12322 2588 c-15 -18 1 -41 24 -36 23 4 26 41 3 46 -9 1 -21 -3 -27
-10z"/>
<path d="M11043 2504 c-8 -21 13 -42 28 -27 13 13 5 43 -11 43 -6 0 -13 -7
-17 -16z"/>
</g>
</svg>
